#tb 0: 1001/30000
0,          0,          0,        1,   299520, 0x5514958a
0,          1,          1,        1,   299520, 0x06725ede
0,          2,          2,        1,   299520, 0xa71d1493
0,          3,          3,        1,   299520, 0xdd4cde37
0,          4,          4,        1,   299520, 0x6ea2f981
0,          5,          5,        1,   299520, 0x34de0d7f
0,          6,          6,        1,   299520, 0xe3555f62
0,          7,          7,        1,   299520, 0xa56cf8b5
0,          8,          8,        1,   299520, 0x74f85f70
0,          9,          9,        1,   299520, 0x7cc4ff3b
0,         10,         10,        1,   299520, 0xacaf62f0
0,         11,         11,        1,   299520, 0x049aa473
0,         12,         12,        1,   299520, 0x3d202b52
0,         13,         13,        1,   299520, 0x530920d5
0,         14,         14,        1,   299520, 0xcf69e5c8
0,         15,         15,        1,   299520, 0x18ad9a4f
0,         16,         16,        1,   299520, 0xc8c1bbd9
0,         17,         17,        1,   299520, 0x6cd37ffc
0,         18,         18,        1,   299520, 0xc8d64c57
0,         19,         19,        1,   299520, 0xec4679bf
0,         20,         20,        1,   299520, 0xc4228355
0,         21,         21,        1,   299520, 0x908c71b0
0,         22,         22,        1,   299520, 0x4c4a92eb
0,         23,         23,        1,   299520, 0x28f7d30d
0,         24,         24,        1,   299520, 0xed2db3da
0,         25,         25,        1,   299520, 0xfb22801f
0,         26,         26,        1,   299520, 0x514de5b9
0,         27,         27,        1,   299520, 0x7bb8d8f7
0,         28,         28,        1,   299520, 0x3e43ae30
0,         29,         29,        1,   299520, 0x45473924
0,         30,         30,        1,   299520, 0x914a440e
0,         31,         31,        1,   299520, 0x91e74926
0,         32,         32,        1,   299520, 0xa8a43ffd
0,         33,         33,        1,   299520, 0x1df08075
0,         34,         34,        1,   299520, 0x84611007
0,         35,         35,        1,   299520, 0x622d7495
0,         36,         36,        1,   299520, 0xede897b6
0,         37,         37,        1,   299520, 0xb14f0650
0,         38,         38,        1,   299520, 0x74f600f9
0,         39,         39,        1,   299520, 0xf04e2de3
0,         40,         40,        1,   299520, 0xaeadd6fc
0,         41,         41,        1,   299520, 0xb5855f8d
0,         42,         42,        1,   299520, 0xbb6c709f
0,         43,         43,        1,   299520, 0x486d66e9
0,         44,         44,        1,   299520, 0x87e7d165
0,         45,         45,        1,   299520, 0x1f936d47
0,         46,         46,        1,   299520, 0x2da721a2
0,         47,         47,        1,   299520, 0x36caf481
0,         48,         48,        1,   299520, 0x067e3f4d
0,         49,         49,        1,   299520, 0x1a95c86b
0,         50,         50,        1,   299520, 0x186c1bde
0,         51,         51,        1,   299520, 0xd1552b21
0,         52,         52,        1,   299520, 0x72521786
0,         53,         53,        1,   299520, 0xe0f0b1b2
0,         54,         54,        1,   299520, 0xee8c6751
0,         55,         55,        1,   299520, 0x281817ef
0,         56,         56,        1,   299520, 0xea98b174
0,         57,         57,        1,   299520, 0x839575de
0,         58,         58,        1,   299520, 0xd89b6ff1
0,         59,         59,        1,   299520, 0xee8432a7
0,         60,         60,        1,   299520, 0x8f262218
0,         61,         61,        1,   299520, 0xac918f83
0,         62,         62,        1,   299520, 0x398c23d7
0,         63,         63,        1,   299520, 0xdc560109
0,         64,         64,        1,   299520, 0xb4c3cd8b
0,         65,         65,        1,   299520, 0x79824026
0,         66,         66,        1,   299520, 0xd20f5be8
0,         67,         67,        1,   299520, 0xc93b32a3
0,         68,         68,        1,   299520, 0xc1363d67
0,         69,         69,        1,   299520, 0xeb6d2f0a
0,         70,         70,        1,   299520, 0x29053a08
0,         71,         71,        1,   299520, 0x8a236752
0,         72,         72,        1,   299520, 0x5e572146
0,         73,         73,        1,   299520, 0x4f7ca5cf
0,         74,         74,        1,   299520, 0x62951193
0,         75,         75,        1,   299520, 0xf163d1cb
0,         76,         76,        1,   299520, 0xb995206c
0,         77,         77,        1,   299520, 0xcf5ebaa3
0,         78,         78,        1,   299520, 0x22fad89d
0,         79,         79,        1,   299520, 0xc9c25e12
0,         80,         80,        1,   299520, 0xd5404f45
0,         81,         81,        1,   299520, 0x484bd02d
0,         82,         82,        1,   299520, 0x5790a1c4
0,         83,         83,        1,   299520, 0xcbec0fed
0,         84,         84,        1,   299520, 0x36bd1758
0,         85,         85,        1,   299520, 0x4a133700
0,         86,         86,        1,   299520, 0x2c582b0a
0,         87,         87,        1,   299520, 0xadd773e1
0,         88,         88,        1,   299520, 0xe4bbced3
0,         89,         89,        1,   299520, 0x463b3ff0
